<svg width="16" height="16" viewBox="0 0 16 16" fill="none" xmlns="http://www.w3.org/2000/svg">
<path fill-rule="evenodd" clip-rule="evenodd" d="M8.12292 0C8.18752 0 8.23989 0.0523801 8.23989 0.116913V0.239364C8.23989 0.303897 8.18752 0.356277 8.12292 0.356277H7.98866V0.750704C12.0893 0.876693 15.375 4.24071 15.375 8.37297C15.375 12.5856 11.9614 16 7.75042 16C3.53941 16 0.125 12.5856 0.125 8.37297C0.125 4.24102 3.41099 0.877078 7.51134 0.750781V0.356277H7.37708C7.31248 0.356277 7.26019 0.303897 7.26019 0.239364V0.116913C7.26019 0.0523801 7.31248 0 7.37708 0H8.12292ZM7.94106 1.75062V2.41987C7.94106 2.5254 7.85554 2.61093 7.75004 2.61093C7.64453 2.61093 7.55894 2.5254 7.55894 2.41987V1.75062C4.05164 1.85038 1.22812 4.67406 1.12877 8.18221H1.79787C1.90338 8.18221 1.98897 8.26775 1.98897 8.37328C1.98897 8.47888 1.90338 8.56441 1.79787 8.56441H1.12877C1.22858 12.0723 4.05187 14.8962 7.55894 14.996V14.3268C7.55894 14.2212 7.64453 14.1356 7.75004 14.1356C7.85554 14.1356 7.94106 14.2212 7.94106 14.3268V14.996C11.4484 14.8966 14.2714 12.0725 14.3712 8.56441H13.7021C13.5966 8.56441 13.5111 8.47888 13.5111 8.37328C13.5111 8.26775 13.5966 8.18221 13.7021 8.18221H14.3712C14.2719 4.67375 11.4487 1.84999 7.94106 1.75062ZM7.74999 8.01702C7.9467 8.01702 8.10619 8.17655 8.10619 8.3733C8.10619 8.3936 8.1035 8.41314 8.10027 8.43245L10.3661 10.4819C10.4242 10.5345 10.4662 10.6026 10.4871 10.6782L10.5177 10.7894C10.5327 10.8435 10.4863 10.8948 10.431 10.8854L10.3172 10.866C10.2399 10.8529 10.168 10.8179 10.1098 10.7653L7.84358 8.7155C7.81359 8.72381 7.7826 8.72958 7.74999 8.72958C7.55336 8.72958 7.39379 8.57005 7.39379 8.3733C7.39379 8.17655 7.55336 8.01702 7.74999 8.01702Z" fill="white"/>
</svg>
