<svg width="17" height="16" viewBox="0 0 17 16" fill="none" xmlns="http://www.w3.org/2000/svg">
<path fill-rule="evenodd" clip-rule="evenodd" d="M5.38925 10.5956L12.7734 14.8859C11.5901 15.597 10.2174 16 8.75 16C7.54297 16 6.40694 15.7393 5.38925 15.2415V10.5956ZM4.79733 6.39976V14.9331C2.57261 13.7005 1.03424 11.4012 0.797571 8.72273L4.79733 6.39976ZM16.75 7.94027V8.01138C16.75 10.7136 15.401 13.1077 13.3419 14.5299L9.34215 12.2306L16.75 7.94027ZM12.7029 1.06667C14.9276 2.29926 16.466 4.59852 16.7027 7.27704L12.7029 9.6V1.06667ZM4.15808 1.46963L8.15785 3.76889L0.75 8.03556V8.01185C0.75 5.28593 2.09903 2.89185 4.15808 1.46963ZM8.75047 0C9.9575 0 11.0935 0.260741 12.1112 0.758519V5.38074L4.72704 1.09037C5.9104 0.402963 7.2831 0 8.75047 0Z" fill="white"/>
</svg>
