<svg width="33" height="16" viewBox="0 0 33 16" fill="none" xmlns="http://www.w3.org/2000/svg">
<path fill-rule="evenodd" clip-rule="evenodd" d="M29.6492 0C31.3617 0 32.75 1.39911 32.75 3.125V12.875C32.75 14.6009 31.3617 16 29.6492 16H3.85078C2.13826 16 0.75 14.6009 0.75 12.875V3.125C0.75 1.39911 2.13826 0 3.85078 0H29.6492ZM13.46 2.911C12.7813 2.911 12.178 3.02737 11.6501 3.26012C11.1222 3.49287 10.7122 3.82775 10.42 4.26475C10.1277 4.70175 9.98163 5.21475 9.98163 5.80375C9.98163 6.43075 10.1254 6.93188 10.4129 7.30713C10.7004 7.68237 11.0444 7.96263 11.4451 8.14787C11.8457 8.33313 12.3665 8.52075 13.0075 8.71075C13.4788 8.84375 13.8488 8.96488 14.1174 9.07413C14.3861 9.18338 14.61 9.333 14.7891 9.523C14.9682 9.713 15.0577 9.95525 15.0577 10.2498C15.0577 10.6108 14.9258 10.9029 14.6618 11.1261C14.3979 11.3494 14.035 11.461 13.5731 11.461C13.1206 11.461 12.7648 11.3422 12.5055 11.1047C12.2567 10.8767 12.1142 10.57 12.0782 10.1844L12.0743 10.1357H9.95335L9.95495 10.2006C9.97476 10.7813 10.1392 11.2869 10.4482 11.7175C10.7687 12.164 11.2047 12.506 11.7561 12.7435C12.3076 12.981 12.9274 13.0997 13.6155 13.0997C14.3413 13.0997 14.9682 12.9644 15.496 12.6936C16.0239 12.4229 16.4245 12.0595 16.6979 11.6035C16.9713 11.1475 17.108 10.6535 17.108 10.1215C17.108 9.504 16.9618 9.00525 16.6696 8.62525C16.3774 8.24525 16.0286 7.96025 15.6233 7.77025C15.218 7.58025 14.6948 7.39025 14.0538 7.20025C13.5825 7.05775 13.2172 6.93188 12.958 6.82263C12.6988 6.71338 12.482 6.57087 12.3076 6.39512C12.1332 6.21938 12.046 5.9985 12.046 5.7325C12.046 5.3525 12.1615 5.06275 12.3924 4.86325C12.6234 4.66375 12.9321 4.564 13.3186 4.564C13.7616 4.564 14.1174 4.67563 14.3861 4.89888C14.6436 5.11282 14.7863 5.3813 14.8143 5.70431L14.8173 5.74675H16.9948L16.9899 5.68617C16.9127 4.82222 16.5633 4.14654 15.9414 3.65913C15.3052 3.16038 14.478 2.911 13.46 2.911ZM24.1442 2.911C23.2204 2.911 22.3721 3.1295 21.5991 3.5665C20.8262 4.0035 20.2134 4.60913 19.761 5.38338C19.3085 6.15763 19.0823 7.02925 19.0823 7.99825C19.0823 8.97675 19.3085 9.85312 19.761 10.6274C20.2134 11.4016 20.8262 12.0072 21.5991 12.4443C22.3721 12.8813 23.2204 13.0997 24.1442 13.0997C25.068 13.0997 25.9164 12.8813 26.6893 12.4443C27.4623 12.0072 28.0727 11.4016 28.5204 10.6274C28.9682 9.85312 29.192 8.97675 29.192 7.99825C29.192 7.02925 28.9682 6.15763 28.5204 5.38338C28.0727 4.60913 27.4647 4.0035 26.6964 3.5665C25.9282 3.1295 25.0774 2.911 24.1442 2.911ZM7.51242 3.0535H5.53288V13H7.51242V3.0535ZM24.1442 4.7065C24.7381 4.7065 25.2613 4.8395 25.7137 5.1055C26.1662 5.3715 26.5197 5.75387 26.7742 6.25262C27.0287 6.75138 27.156 7.33325 27.156 7.99825C27.156 8.66325 27.0287 9.2475 26.7742 9.751C26.5197 10.2545 26.1662 10.6416 25.7137 10.9124C25.2613 11.1831 24.7381 11.3185 24.1442 11.3185C23.5504 11.3185 23.0249 11.1831 22.5677 10.9124C22.1105 10.6416 21.7547 10.2545 21.5001 9.751C21.2456 9.2475 21.1184 8.66325 21.1184 7.99825C21.1184 7.33325 21.2456 6.75138 21.5001 6.25262C21.7547 5.75387 22.1105 5.3715 22.5677 5.1055C23.0249 4.8395 23.5504 4.7065 24.1442 4.7065Z" fill="white"/>
</svg>
