<svg width="11" height="16" viewBox="0 0 11 16" fill="none" xmlns="http://www.w3.org/2000/svg">
<path fill-rule="evenodd" clip-rule="evenodd" d="M5.75 6.44452C4.78804 6.44452 4.00973 5.70036 4.00973 4.78061C4.00973 3.86295 4.78804 3.11879 5.75 3.11879C6.70977 3.11879 7.48809 3.86295 7.48809 4.78061C7.48809 5.70036 6.70977 6.44452 5.75 6.44452ZM5.75 0C2.98874 0 0.75 2.14051 0.75 4.78061C0.75 6.70791 3.4085 12.471 4.84926 15.4497C5.20343 16.1834 6.29438 16.1834 6.65074 15.4497C8.08931 12.471 10.75 6.70791 10.75 4.78061C10.75 2.14051 8.51126 0 5.75 0Z" fill="white"/>
</svg>
